<?xml version="1.0" encoding="UTF-8" standalone="no"?>
<svg width="25px" height="23px" viewBox="0 0 25 23" version="1.1" xmlns="http://www.w3.org/2000/svg" xmlns:xlink="http://www.w3.org/1999/xlink">
    <!-- Generator: sketchtool 39.1 (31720) - http://www.bohemiancoding.com/sketch -->
    <title>4C383A8B-A49E-4DE4-8DA2-2D3B4A768BF3</title>
    <desc>Created with sketchtool.</desc>
    <defs></defs>
    <g id="Page-1" stroke="none" stroke-width="1" fill="none" fill-rule="evenodd">
        <g id="Desktop-HD" transform="translate(-1296.000000, -50.000000)" fill="#FFFFFF">
            <path d="M1320.91563,71.25 C1320.91563,70.5596875 1320.35594,70 1319.66563,70 L1298.37313,70 C1297.68281,70 1297.12313,70.5596875 1297.12313,71.25 C1297.12313,71.9403125 1297.68281,72.5 1298.37313,72.5 L1319.66563,72.5 C1320.35594,72.5 1320.91563,71.9403125 1320.91563,71.25 M1321,64.59 C1321,63.8996875 1320.44031,63.34 1319.75,63.34 L1302.99875,63.34 C1302.30844,63.34 1301.74875,63.8996875 1301.74875,64.59 C1301.74875,65.2803125 1302.30844,65.84 1302.99875,65.84 L1319.75,65.84 C1320.44031,65.84 1321,65.2803125 1321,64.59 M1321,57.93 C1321,57.2396875 1320.44031,56.68 1319.75,56.68 L1306.815,56.68 C1306.12469,56.68 1305.565,57.2396875 1305.565,57.93 C1305.565,58.6203125 1306.12469,59.18 1306.815,59.18 L1319.75,59.18 C1320.44031,59.18 1321,58.6203125 1321,57.93 M1319.75,52.5 L1297.25,52.5 C1296.55969,52.5 1296,51.9403125 1296,51.25 C1296,50.5596875 1296.55969,50 1297.25,50 L1319.75,50 C1320.44031,50 1321,50.5596875 1321,51.25 C1321,51.9403125 1320.44031,52.5 1319.75,52.5" id="align-right"></path>
        </g>
    </g>
</svg>