<?xml version="1.0" encoding="UTF-8" standalone="no"?>
<svg width="130px" height="24px" viewBox="0 0 130 24" version="1.1" xmlns="http://www.w3.org/2000/svg" xmlns:xlink="http://www.w3.org/1999/xlink">
    <!-- Generator: sketchtool 39.1 (31720) - http://www.bohemiancoding.com/sketch -->
    <title>BB2B264C-2B2B-4820-9ACC-663FC460B374</title>
    <desc>Created with sketchtool.</desc>
    <defs>
        <linearGradient x1="50%" y1="0%" x2="50%" y2="99.3223852%" id="linearGradient-1">
            <stop stop-color="#EB2861" offset="0%"></stop>
            <stop stop-color="#EB2661" offset="100%"></stop>
        </linearGradient>
        <polygon id="path-2" points="11.8116186 13.2032883 11.8116186 0.8008038 0.0507270734 0.8008038 0.0507270734 13.2032883 11.8116186 13.2032883"></polygon>
        <polygon id="path-4" points="0 22.7986847 129.604823 22.7986847 129.604823 0.0398976982 0 0.0398976982"></polygon>
    </defs>
    <g id="Page-1" stroke="none" stroke-width="1" fill="none" fill-rule="evenodd">
        <g id="Desktop-HD" transform="translate(-119.000000, -50.000000)">
            <g id="Page-1" transform="translate(119.000000, 50.000000)">
                <polygon id="Fill-1" fill="#FEFEFE" points="0.159590793 17.6284044 3.73898429 17.6284044 3.73898429 1.35014354 0.159590793 1.35014354"></polygon>
                <polygon id="Fill-2" fill="#FEFEFE" points="5.60676653 1.3507135 5.60676653 4.36013988 10.4875849 4.36013988 10.4875849 17.6289744 14.0650786 17.6289744 14.0650786 4.36013988 18.9439971 4.36013988 18.9439971 1.3507135"></polygon>
                <g id="Group-7" transform="translate(17.099014, 4.722449)" fill="#FEFEFE">
                    <path d="M7.96700037,3.87862623 C7.57942273,3.45305079 6.9904567,3.24026306 6.2001023,3.24026306 C5.68333212,3.24026306 5.25395689,3.32765802 4.91197662,3.50244794 C4.56999635,3.67723785 4.29641213,3.89382536 4.09122397,4.15221045 C3.88603581,4.41059554 3.74164414,4.68417976 3.65804896,4.9729631 C3.57445378,5.26174644 3.52505663,5.52013153 3.50985751,5.74811838 L8.77635367,5.74811838 C8.62436244,4.92736573 8.35457801,4.30420168 7.96700037,3.87862623 M4.30781147,10.0798685 C4.79418341,10.5510413 5.49334308,10.7866277 6.40529046,10.7866277 C7.05885276,10.7866277 7.62122031,10.6232371 8.09239313,10.296456 C8.56356595,9.96967483 8.85234929,9.62389478 8.95874315,9.25911582 L11.8085787,9.25911582 C11.352605,10.6726343 10.6534454,11.683376 9.71109974,12.2913409 C8.76875411,12.8993058 7.62881988,13.2032883 6.29129704,13.2032883 C5.36415053,13.2032883 4.52819876,13.0550968 3.78344172,12.7587139 C3.03868469,12.462331 2.40792108,12.0405554 1.8911509,11.4933869 C1.37438071,10.9462185 0.975403727,10.2926562 0.694219949,9.53270004 C0.413036171,8.77274388 0.272444282,7.93679211 0.272444282,7.02484472 C0.272444282,6.14329558 0.416835952,5.32254293 0.705619291,4.56258677 C0.994402631,3.80263062 1.40477896,3.14526854 1.93674826,2.59050055 C2.46871757,2.03573255 3.10328096,1.59875776 3.84043844,1.27957618 C4.57759591,0.960394593 5.39454878,0.8008038 6.29129704,0.8008038 C7.29443917,0.8008038 8.16838875,0.99459262 8.91314578,1.38217026 C9.65790281,1.7697479 10.2696675,2.29031787 10.7484399,2.94388016 C11.2272123,3.59744246 11.5729923,4.34219949 11.7857801,5.17815126 C11.9985678,6.01410303 12.0745634,6.88805261 12.0137669,7.8 L3.50985751,7.8 C3.55545488,8.8487395 3.82143953,9.60869565 4.30781147,10.0798685" id="Fill-3"></path>
                    <path d="M21.2698429,7.13845817 C21.1330508,7.26005115 20.9620607,7.35504567 20.7568725,7.42344172 C20.5516843,7.49183778 20.331297,7.54883449 20.0957106,7.59443186 C19.8601242,7.64002923 19.6131385,7.67802704 19.3547534,7.70842528 C19.0944684,7.73882353 18.8379832,7.77682134 18.5795981,7.82241871 C18.3364121,7.86801608 18.0970259,7.92881257 17.8614395,8.00480818 C17.6258531,8.0808038 17.420665,8.18339788 17.245875,8.31259043 C17.0710851,8.44178297 16.9304932,8.60517355 16.8240994,8.80276215 C16.7177055,9.00035075 16.6645086,9.25113628 16.6645086,9.55511874 C16.6645086,9.84390208 16.7177055,10.0870881 16.8240994,10.2846767 C16.9304932,10.4822653 17.0748849,10.6380563 17.2572744,10.7520497 C17.4396639,10.8660431 17.6524516,10.9458385 17.8956376,10.9914359 C18.1388235,11.0370332 18.3896091,11.0598319 18.6479942,11.0598319 C19.2863573,11.0598319 19.7803288,10.9534381 20.1299087,10.7406503 C20.4775886,10.5278626 20.7378736,10.2732773 20.9050639,9.97689441 C21.0722543,9.68051151 21.1748484,9.38032883 21.2128462,9.07634636 C21.250844,8.7723639 21.2698429,8.52917793 21.2698429,8.34678845 L21.2698429,7.13845817 Z M13.7918743,4.74459627 C13.8374717,3.98464012 14.0255608,3.35387651 14.3618414,2.85230544 C14.6962221,2.35073438 15.1217976,1.94795762 15.6385678,1.64397516 C16.155338,1.33999269 16.7367044,1.12340519 17.3826672,0.994212642 C18.0286299,0.865020095 18.6783924,0.800423822 19.3319547,0.800423822 C19.9247205,0.800423822 20.5250859,0.84222141 21.1330508,0.925816588 C21.7410157,1.00941176 22.2957837,1.17280234 22.7973548,1.41598831 C23.2989258,1.65917428 23.7093022,1.99735477 24.0284837,2.43052978 C24.3476653,2.86370479 24.5072561,3.43747168 24.5072561,4.15183047 L24.5072561,10.2846767 C24.5072561,10.816646 24.5376544,11.3258166 24.5984509,11.8121885 C24.6592474,12.2985605 24.7656412,12.6633394 24.9176324,12.9065254 L21.6346218,12.9065254 C21.5738254,12.7241359 21.5244282,12.5379467 21.4864304,12.3479576 C21.4484326,12.1579686 21.4218341,11.9641798 21.406635,11.7665912 C20.8898648,12.2985605 20.28,12.670939 19.5827402,12.8837267 C18.8835806,13.0965144 18.1692218,13.2029083 17.4396639,13.2029083 C16.8753964,13.2029083 16.3529266,13.1345122 15.8665546,12.9977201 C15.3801827,12.860928 14.9546072,12.6481403 14.5898283,12.359357 C14.2250493,12.0705736 13.9400658,11.7057947 13.7348776,11.2650201 C13.5296894,10.8242455 13.4270954,10.2998758 13.4270954,9.69191085 C13.4270954,9.02314943 13.5448886,8.47218122 13.780475,8.03900621 C14.0160614,7.6058312 14.3200438,7.26005115 14.6924224,7.00166606 C15.0648009,6.74328096 15.4903763,6.54949214 15.9691487,6.4202996 C16.4479211,6.29110705 16.9304932,6.18851297 17.4168652,6.11251735 C17.9032371,6.03652174 18.3801096,5.97572525 18.8531823,5.93012788 C19.3243551,5.88453051 19.742331,5.81613445 20.10711,5.72493972 C20.4718889,5.63374498 20.7587724,5.50075265 20.97346,5.32596273 C21.1862477,5.15117282 21.285042,4.8965875 21.2698429,4.5622068 C21.2698429,4.21262696 21.2128462,3.93524297 21.0988528,3.7300548 C20.9848593,3.52486664 20.8328681,3.36527585 20.6428791,3.25128243 C20.45289,3.137289 20.2325027,3.06129339 19.9817172,3.02329558 C19.7309317,2.98529777 19.4611472,2.96629887 19.1723639,2.96629887 C18.5340007,2.96629887 18.0324297,3.10309098 17.6676507,3.37667519 C17.3028718,3.65025941 17.090084,4.1062331 17.0292875,4.74459627 L13.7918743,4.74459627 Z" id="Fill-5"></path>
                </g>
                <path d="M48.3655097,1.43183882 C47.8563391,1.60472885 47.406065,1.85741427 47.0089879,2.18419542 L47.0089879,2.18419542 C46.6138107,2.50907667 46.2984289,2.90235399 46.0628425,3.35642779 L46.0628425,3.35642779 C45.8272561,3.81240148 45.7094629,4.323472 45.7094629,4.88583955 L45.7094629,4.88583955 C45.7094629,5.60019834 45.8576544,6.2214625 46.1559372,6.75343181 L46.1559372,6.75343181 C46.4504202,7.28540112 46.8189989,7.81737043 47.2597735,8.35123963 L47.2597735,8.35123963 C46.7905005,8.57922647 46.332627,8.84331124 45.8918524,9.1472937 L45.8918524,9.1472937 C45.4510778,9.45317605 45.0616003,9.79705621 44.7177201,10.1865337 L44.7177201,10.1865337 C44.3776398,10.5741114 44.1059554,11.0072864 43.9083668,11.4860588 L43.9083668,11.4860588 C43.7126781,11.9648311 43.6119839,12.4930007 43.6119839,13.0705674 L43.6119839,13.0705674 C43.6119839,13.8457226 43.748776,14.5315831 44.0223602,15.1319484 L44.0223602,15.1319484 C44.2959445,15.7323138 44.6702229,16.2414844 45.1394958,16.6613602 L45.1394958,16.6613602 C45.6125685,17.0774362 46.1692364,17.392818 46.8151991,17.6075056 L46.8151991,17.6075056 C47.4611619,17.8183934 48.1489222,17.9247873 48.8784801,17.9247873 L48.8784801,17.9247873 C49.8056266,17.9247873 50.6396785,17.7651965 51.3749361,17.4460149 L51.3749361,17.4460149 C52.1120935,17.1287332 52.8093533,16.6499609 53.4610157,16.0096978 L53.4610157,16.0096978 L54.7833394,17.6284044 L58.7503106,17.6284044 L55.4445013,13.7773266 C55.9023749,13.19786 56.2576544,12.5670964 56.5160395,11.8831359 L56.5160395,11.8831359 C56.7763244,11.1991753 56.9416149,10.494316 57.0176105,9.76285819 L57.0176105,9.76285819 L54.2133723,9.76285819 C54.1677749,10.0991388 54.0993789,10.4278198 54.0081841,10.754601 L54.0081841,10.754601 C53.9188893,11.083282 53.7877969,11.3986638 53.6206065,11.7007464 L53.6206065,11.7007464 L51.5231275,9.12639491 C52.3457801,8.68372044 53.0316405,8.13655201 53.5864085,7.48488961 L53.5864085,7.48488961 C54.1411765,6.83132731 54.4185605,6.02577379 54.4185605,5.06822903 L54.4185605,5.06822903 C54.4185605,4.42796597 54.3007673,3.8674983 54.0651809,3.38112636 L54.0651809,3.38112636 C53.8295944,2.89475442 53.5104129,2.48817788 53.1076361,2.15949684 L53.1076361,2.15949684 C52.7067592,1.83271569 52.2336865,1.58762983 51.6960175,1.41853959 L51.6960175,1.41853959 C51.1545488,1.25134924 50.5731823,1.16775406 49.9519182,1.16775406 L49.9519182,1.16775406 C49.4047497,1.16775406 48.8746803,1.25704891 48.3655097,1.43183882 M49.0608696,6.09416984 C48.7872853,5.727491 48.6523931,5.28671643 48.6523931,4.76994624 L48.6523931,4.76994624 C48.6523931,4.34627068 48.7948849,3.99859074 49.0836682,3.73450598 L49.0836682,3.73450598 C49.3743515,3.46662143 49.7144319,3.3336291 50.1096091,3.3336291 L50.1096091,3.3336291 C50.5047863,3.3336291 50.8505663,3.48562034 51.1488491,3.79150269 L51.1488491,3.79150269 C51.4433321,4.09548515 51.5934235,4.45836422 51.5934235,4.88583955 L51.5934235,4.88583955 C51.5934235,5.47860536 51.428133,5.94217861 51.1013518,6.27465943 L51.1013518,6.27465943 C50.7745707,6.61094003 50.3831933,6.92252205 49.9272196,7.21130539 L49.9272196,7.21130539 C49.6232371,6.83132731 49.3363537,6.4589488 49.0608696,6.09416984 M48.1394227,15.1110496 C47.8563391,14.9951563 47.6093533,14.8431651 47.3965656,14.6531761 L47.3965656,14.6531761 C47.1837779,14.463187 47.0127877,14.2371001 46.8835952,13.9692155 L46.8835952,13.9692155 C46.7563025,13.7051307 46.6898064,13.4258469 46.6898064,13.1389634 L46.6898064,13.1389634 C46.6898064,12.8026828 46.7563025,12.4987003 46.8835952,12.2251161 L46.8835952,12.2251161 C47.0127877,11.9515319 47.1837779,11.7007464 47.3965656,11.4727595 L47.3965656,11.4727595 C47.6093533,11.2466726 47.8525393,11.0471841 48.1261235,10.8818936 L48.1261235,10.8818936 C48.3997077,10.7147033 48.6808915,10.5684117 48.9696748,10.4468187 L48.9696748,10.4468187 L51.7511144,13.8457226 C51.3711363,14.2712981 50.9645597,14.6170781 50.5313847,14.8830628 L50.5313847,14.8830628 C50.0982097,15.1471476 49.5928389,15.2820398 49.0152722,15.2820398 L49.0152722,15.2820398 C48.7112897,15.2820398 48.4187066,15.2231432 48.1394227,15.1110496" id="Fill-8" fill="url(#linearGradient-1)"></path>
                <g id="Group-25" transform="translate(0.000000, 0.922668)">
                    <path d="M70.5148118,4.77100475 C70.3020241,4.42902448 70.0360395,4.1288418 69.7168579,3.8704567 C69.3976763,3.61207161 69.0366971,3.41068323 68.6339204,3.26629156 C68.2311436,3.12189989 67.8093679,3.04970406 67.3685934,3.04970406 C66.5611399,3.04970406 65.8790793,3.20549507 65.3167117,3.51707709 C64.7543442,3.82865912 64.2983705,4.246635 63.9487906,4.77100475 C63.5992108,5.2953745 63.3446255,5.89194008 63.1850347,6.5607015 C63.0254439,7.22946292 62.9456485,7.92102302 62.9456485,8.6353818 C62.9456485,9.31934235 63.0254439,9.98430398 63.1850347,10.6302667 C63.3446255,11.2762294 63.5992108,11.8575959 63.9487906,12.3743661 C64.2983705,12.8911363 64.7543442,13.3053124 65.3167117,13.6168944 C65.8790793,13.9284764 66.5611399,14.0842674 67.3685934,14.0842674 C68.4629302,14.0842674 69.3178809,13.7517866 69.9334454,13.0811253 C70.5490099,12.4123639 70.9251882,11.5308148 71.0619803,10.4364779 L74.5273803,10.4364779 C74.4361856,11.4548191 74.1986993,12.3743661 73.8206211,13.1951187 C73.440643,14.0158714 72.939072,14.7150311 72.3159079,15.2925977 C71.6927439,15.8701644 70.963186,16.310939 70.1272342,16.6149214 C69.2912824,16.9189039 68.3717355,17.0708951 67.3685934,17.0708951 C66.1203654,17.0708951 65.0013299,16.8543076 64.0057874,16.4211326 C63.0102448,15.9879576 62.1704932,15.391392 61.4865327,14.6314359 C60.8025722,13.8733796 60.2782024,12.9785312 59.9134235,11.9525904 C59.5486445,10.9266496 59.366255,9.82091341 59.366255,8.6353818 C59.366255,7.42135185 59.5486445,6.29091706 59.9134235,5.24977713 C60.2782024,4.21053708 60.8025722,3.30048959 61.4865327,2.52533431 C62.1704932,1.75017903 63.0102448,1.1422141 64.0057874,0.701439532 C65.0013299,0.260664962 66.1203654,0.0402776763 67.3685934,0.0402776763 C68.2653416,0.0402776763 69.1126927,0.169470223 69.9106467,0.427855316 C70.7086007,0.6881403 71.4229594,1.06241871 72.0537231,1.55639021 C72.6844867,2.05036171 73.2050566,2.66212642 73.615433,3.39168433 C74.0258093,4.12124224 74.2841944,4.95719401 74.3905882,5.89953964 L70.9251882,5.89953964 C70.8643917,5.48916332 70.7275996,5.11298502 70.5148118,4.77100475 L70.5148118,4.77100475 Z" id="Fill-10" fill="#FEFEFE"></path>
                    <path d="M79.6339057,12.2035659 C79.7251005,12.6519401 79.8808915,13.0547168 80.1012788,13.4118962 C80.3216661,13.7690756 80.6142492,14.0540592 80.9790281,14.2668469 C81.3438071,14.4796346 81.7997808,14.5860285 82.3469492,14.5860285 C82.8941176,14.5860285 83.3538911,14.4796346 83.7262696,14.2668469 C84.0986482,14.0540592 84.3950311,13.7690756 84.6154183,13.4118962 C84.8358056,13.0547168 84.9915966,12.6519401 85.0827914,12.2035659 C85.1739861,11.7551918 85.2195835,11.2954183 85.2195835,10.8242455 C85.2195835,10.3530727 85.1739861,9.88949945 85.0827914,9.43352576 C84.9915966,8.97755206 84.8358056,8.5747753 84.6154183,8.22519547 C84.3950311,7.87561564 84.0986482,7.59063208 83.7262696,7.37024479 C83.3538911,7.14985751 82.8941176,7.03966387 82.3469492,7.03966387 C81.7997808,7.03966387 81.3438071,7.14985751 80.9790281,7.37024479 C80.6142492,7.59063208 80.3216661,7.87561564 80.1012788,8.22519547 C79.8808915,8.5747753 79.7251005,8.97755206 79.6339057,9.43352576 C79.542711,9.88949945 79.4971136,10.3530727 79.4971136,10.8242455 C79.4971136,11.2954183 79.542711,11.7551918 79.6339057,12.2035659 M76.6928754,8.2593935 C76.9816588,7.49183778 77.3920351,6.83827548 77.9240044,6.29870661 C78.4559737,5.75913774 79.0943369,5.34116186 79.8390939,5.04477896 C80.5838509,4.74839605 81.4198027,4.6002046 82.3469492,4.6002046 C83.2740957,4.6002046 84.1138473,4.74839605 84.8662039,5.04477896 C85.6185605,5.34116186 86.2607234,5.75913774 86.7926927,6.29870661 C87.324662,6.83827548 87.7350384,7.49183778 88.0238217,8.2593935 C88.312605,9.02694921 88.4569967,9.88189989 88.4569967,10.8242455 C88.4569967,11.7665912 88.312605,12.6177421 88.0238217,13.3776982 C87.7350384,14.1376544 87.324662,14.7874169 86.7926927,15.3269858 C86.2607234,15.8665546 85.6185605,16.2807307 84.8662039,16.5695141 C84.1138473,16.8582974 83.2740957,17.0026891 82.3469492,17.0026891 C81.4198027,17.0026891 80.5838509,16.8582974 79.8390939,16.5695141 C79.0943369,16.2807307 78.4559737,15.8665546 77.9240044,15.3269858 C77.3920351,14.7874169 76.9816588,14.1376544 76.6928754,13.3776982 C76.4040921,12.6177421 76.2597004,11.7665912 76.2597004,10.8242455 C76.2597004,9.88189989 76.4040921,9.02694921 76.6928754,8.2593935" id="Fill-12" fill="#FEFEFE"></path>
                    <path d="M89.3235367,7.08564121 L89.3235367,4.91976617 L91.2614249,4.91976617 L91.2614249,4.00781878 C91.2614249,2.95907928 91.5882061,2.10032883 92.2417684,1.43156741 C92.8953307,0.762805992 93.8832737,0.428425283 95.2055974,0.428425283 C95.4943807,0.428425283 95.783164,0.439824626 96.0719474,0.46262331 C96.3607307,0.485421995 96.6419145,0.504420899 96.9154987,0.519620022 L96.9154987,2.9362806 C96.5355206,2.89068323 96.1403434,2.86788455 95.7299671,2.86788455 C95.2891925,2.86788455 94.9738107,2.97047863 94.7838217,3.17566679 C94.5938327,3.38085495 94.4988381,3.726635 94.4988381,4.21300694 L94.4988381,4.91976617 L96.7331092,4.91976617 L96.7331092,7.08564121 L94.4988381,7.08564121 L94.4988381,16.7066862 L91.2614249,16.7066862 L91.2614249,7.08564121 L89.3235367,7.08564121 Z" id="Fill-14" fill="#FEFEFE"></path>
                    <path d="M96.5047424,7.08564121 L96.5047424,4.91976617 L98.4426306,4.91976617 L98.4426306,4.00781878 C98.4426306,2.95907928 98.7694118,2.10032883 99.4229741,1.43156741 C100.076536,0.762805992 101.064479,0.428425283 102.386803,0.428425283 C102.675586,0.428425283 102.96437,0.439824626 103.253153,0.46262331 C103.541936,0.485421995 103.82312,0.504420899 104.096704,0.519620022 L104.096704,2.9362806 C103.716726,2.89068323 103.321549,2.86788455 102.911173,2.86788455 C102.470398,2.86788455 102.155016,2.97047863 101.965027,3.17566679 C101.775038,3.38085495 101.680044,3.726635 101.680044,4.21300694 L101.680044,4.91976617 L103.914315,4.91976617 L103.914315,7.08564121 L101.680044,7.08564121 L101.680044,16.7066862 L98.4426306,16.7066862 L98.4426306,7.08564121 L96.5047424,7.08564121 Z" id="Fill-16" fill="#FEFEFE"></path>
                    <path d="M112.452612,7.67840701 C112.065035,7.25283157 111.476069,7.04004384 110.685714,7.04004384 C110.168944,7.04004384 109.739569,7.1274388 109.397589,7.30222872 C109.055608,7.47701863 108.782024,7.69360614 108.576836,7.95199123 C108.371648,8.21037632 108.227256,8.48396054 108.143661,8.77274388 C108.060066,9.06152722 108.010669,9.31991231 107.995469,9.54789916 L113.261966,9.54789916 C113.109974,8.72714651 112.84019,8.10398246 112.452612,7.67840701 M108.793423,13.8796493 C109.279795,14.3508221 109.978955,14.5864085 110.890902,14.5864085 C111.544465,14.5864085 112.106832,14.4230179 112.578005,14.0962368 C113.049178,13.7694556 113.337961,13.4236756 113.444355,13.0588966 L116.294191,13.0588966 C115.838217,14.4724151 115.139057,15.4831567 114.196712,16.0911217 C113.254366,16.6990866 112.114432,17.0030691 110.776909,17.0030691 C109.849763,17.0030691 109.013811,16.8548776 108.269054,16.5584947 C107.524297,16.2621118 106.893533,15.8403361 106.376763,15.2931677 C105.859993,14.7459993 105.461016,14.092437 105.179832,13.3324808 C104.898648,12.5725247 104.758056,11.7365729 104.758056,10.8246255 C104.758056,9.94307636 104.902448,9.12232371 105.191231,8.36236756 C105.480015,7.6024114 105.890391,6.94504932 106.42236,6.39028133 C106.95433,5.83551334 107.588893,5.39853855 108.32605,5.07935696 C109.063208,4.76017537 109.880161,4.60058458 110.776909,4.60058458 C111.780051,4.60058458 112.654001,4.7943734 113.398758,5.18195104 C114.143515,5.56952868 114.75528,6.09009865 115.234052,6.74366094 C115.712824,7.39722324 116.058604,8.14198027 116.271392,8.97793204 C116.48418,9.81388381 116.560175,10.6878334 116.499379,11.5997808 L107.995469,11.5997808 C108.041067,12.6485203 108.307052,13.4084764 108.793423,13.8796493" id="Fill-18" fill="#FEFEFE"></path>
                    <g id="Group-22" transform="translate(117.793204, 3.799781)">
                        <mask id="mask-3" fill="white">
                            <use xlink:href="#path-2"></use>
                        </mask>
                        <g id="Clip-21"></g>
                        <path d="M7.74528316,3.87862623 C7.35770552,3.45305079 6.7687395,3.24026306 5.97838509,3.24026306 C5.46161491,3.24026306 5.03223968,3.32765802 4.69025941,3.50244794 C4.34827914,3.67723785 4.07469492,3.89382536 3.86950676,4.15221045 C3.6643186,4.41059554 3.51992693,4.68417976 3.43633175,4.9729631 C3.35273657,5.26174644 3.30333942,5.52013153 3.2881403,5.74811838 L8.55463646,5.74811838 C8.40264523,4.92736573 8.1328608,4.30420168 7.74528316,3.87862623 M4.08609426,10.0798685 C4.5724662,10.5510413 5.27162587,10.7866277 6.18357326,10.7866277 C6.83713555,10.7866277 7.39950311,10.6232371 7.87067592,10.296456 C8.34184874,9.96967483 8.63063208,9.62389478 8.73702594,9.25911582 L11.5868615,9.25911582 C11.1308878,10.6726343 10.4317282,11.683376 9.48938254,12.2913409 C8.5470369,12.8993058 7.40710267,13.2032883 6.06957983,13.2032883 C5.14243332,13.2032883 4.30648155,13.0550968 3.56172452,12.7587139 C2.81696748,12.462331 2.18620387,12.0405554 1.66943369,11.4933869 C1.1526635,10.9462185 0.753686518,10.2926562 0.47250274,9.53270004 C0.191318962,8.77274388 0.0507270734,7.93679211 0.0507270734,7.02484472 C0.0507270734,6.14329558 0.195118743,5.32254293 0.483902083,4.56258677 C0.772685422,3.80263062 1.18306175,3.14526854 1.71503106,2.59050055 C2.24700037,2.03573255 2.88156376,1.59875776 3.61872123,1.27957618 C4.3558787,0.960394593 5.17283157,0.8008038 6.06957983,0.8008038 C7.07272196,0.8008038 7.94667154,0.99459262 8.69142857,1.38217026 C9.4361856,1.7697479 10.0479503,2.29031787 10.5267227,2.94388016 C11.0054951,3.59744246 11.3512751,4.34219949 11.5640628,5.17815126 C11.7768506,6.01410303 11.8528462,6.88805261 11.7920497,7.8 L3.2881403,7.8 C3.33373767,8.8487395 3.59972232,9.60869565 4.08609426,10.0798685" id="Fill-20" fill="#FEFEFE" mask="url(#mask-3)"></path>
                    </g>
                    <mask id="mask-5" fill="white">
                        <use xlink:href="#path-4"></use>
                    </mask>
                    <g id="Clip-24"></g>
                    <polygon id="Fill-23" fill="#FEFEFE" mask="url(#mask-5)" points="0 22.7986847 42.0901717 22.7986847 42.0901717 19.9488491 0 19.9488491"></polygon>
                </g>
            </g>
        </g>
    </g>
</svg>