<?xml version="1.0" encoding="UTF-8" standalone="no"?>
<svg
   xmlns:dc="http://purl.org/dc/elements/1.1/"
   xmlns:cc="http://creativecommons.org/ns#"
   xmlns:rdf="http://www.w3.org/1999/02/22-rdf-syntax-ns#"
   xmlns:svg="http://www.w3.org/2000/svg"
   xmlns="http://www.w3.org/2000/svg"
   viewBox="0 0 897.29999 168.60001"
   height="168.60001"
   width="897.29999"
   xml:space="preserve"
   version="1.1"
   id="svg2"><metadata
     id="metadata8"><rdf:RDF><cc:Work
         rdf:about=""><dc:format>image/svg+xml</dc:format><dc:type
           rdf:resource="http://purl.org/dc/dcmitype/StillImage" /></cc:Work></rdf:RDF></metadata><defs
     id="defs6" /><g
     transform="matrix(1.25,0,0,-1.25,0,168.6)"
     id="g10"><g
       transform="scale(0.1,0.1)"
       id="g12"><path
         id="path14"
         style="fill:#305bb0;fill-opacity:1;fill-rule:nonzero;stroke:none"
         d="m 2176.95,886.07 0,-462.457 -148.2,0 -132.34,253.547 c -6.61,12.582 -16.88,34.77 -30.9,66.332 l -14.92,33.281 -14.65,33.239 -3.32,0 1.36,-30.555 0.98,-30.184 0.7,-60.628 0,-265.032 -87.11,0 0,462.457 148.21,0 120.47,-234.644 c 10.62,-20.781 22.97,-45.977 36.99,-75.508 l 17.66,-37.539 17.65,-37.93 3.01,0 -1.02,29.766 -0.97,29.805 -0.71,59.55 0,266.5 87.11,0 0,0" /><path
         id="path16"
         style="fill:#305bb0;fill-opacity:1;fill-rule:nonzero;stroke:none"
         d="m 2335.94,811.957 0,-118.855 216.56,0 0,-64.762 -216.56,0 0,-130.625 230.66,0 0,-74.102 -317.77,0 0,462.457 315.47,0 0,-74.113 -228.36,0 0,0" /><path
         id="path18"
         style="fill:#305bb0;fill-opacity:1;fill-rule:nonzero;stroke:none"
         d="m 3281.33,886.07 -123.56,-462.457 -129.64,0 -64.3,236.953 c -5.86,21.438 -12.74,50.114 -20.67,86.008 l -6.4,28.477 -3.09,0 -6.76,-28.828 -6.44,-28.434 c -4.73,-19.18 -9.81,-38.398 -15.2,-57.574 l -66.01,-236.602 -128.28,0 -119.85,462.457 89.38,0 66.68,-253.902 c 4.06,-16.289 9.14,-38.789 15.23,-67.422 l 7.11,-33.867 6.76,-33.848 3.09,0 c 3.59,14.903 6.28,26.172 8.08,33.848 l 8.13,33.516 c 4.25,17.597 10.27,40.058 17.96,67.421 l 71.06,254.254 102.89,0 69.41,-254.254 c 5.86,-21.718 11.61,-44.14 17.27,-67.421 l 7.77,-33.516 8.13,-33.848 2.69,0 7.46,33.848 7.11,33.867 c 5.82,27.285 11.18,49.883 15.9,67.774 l 68.4,253.55 89.69,0 0,0" /><path
         id="path20"
         style="fill:#538bd0;fill-opacity:1;fill-rule:nonzero;stroke:none"
         d="m 3617.27,886.07 92.73,0 -148.95,-462.457 -134.68,0 -147.58,462.457 91.05,0 86.64,-262.105 c 8.13,-25.039 20.2,-67.012 36.22,-125.938 l 2.38,0 8.83,31.465 c 10.78,39.317 20.04,70.723 27.73,94.141 l 85.63,262.437 0,0" /><path
         id="path22"
         style="fill:#538bd0;fill-opacity:1;fill-rule:nonzero;stroke:none"
         d="m 3940.23,889.582 c 83.87,0 137.86,-13.875 162,-41.719 24.14,-27.812 36.21,-90.074 36.21,-186.789 0,-105.722 -12.15,-172.265 -36.37,-199.765 -24.26,-27.539 -82.93,-41.289 -176.05,-41.289 -83.87,0 -138.13,13.593 -162.7,40.761 -24.53,27.11 -36.84,86.934 -36.84,179.317 0,109.992 12.07,179.054 36.18,207.261 24.14,28.204 83.32,42.223 177.57,42.223 m -6.79,-75.269 c -58.56,0 -92.81,-7.54 -102.7,-22.622 -9.88,-15.117 -14.8,-67.3 -14.8,-156.593 0,-66.172 5.78,-105.996 17.34,-119.453 11.52,-13.555 45.59,-20.332 102.23,-20.332 54.06,0 86.52,7.675 97.3,22.832 10.74,15.175 16.14,61.25 16.14,138.242 0,77.144 -5.08,122.726 -15.32,136.793 -10.23,14.101 -43.59,21.133 -100.19,21.133" /><path
         id="path24"
         style="fill:#538bd0;fill-opacity:1;fill-rule:nonzero;stroke:none"
         d="m 4285.08,423.613 -87.07,0 0,462.457 87.07,0 0,-462.457" /><path
         id="path26"
         style="fill:#538bd0;fill-opacity:1;fill-rule:nonzero;stroke:none"
         d="m 4652.23,588.34 87.97,0 0,-15.879 c 0,-64.043 -11.72,-105.527 -35.16,-124.258 -23.48,-18.808 -75.35,-28.183 -155.63,-28.183 -91.13,0 -147.18,14.863 -168.16,44.648 -20.94,29.727 -31.41,109.297 -31.41,238.664 0,76.172 14.18,126.25 42.62,150.238 28.36,24.063 87.81,36.012 178.28,36.012 65.86,0 109.85,-9.801 131.96,-29.57 22.1,-19.762 33.16,-58.942 33.16,-117.578 l 0.35,-10.504 -88.05,0 0,11.793 c 0,30.16 -5.7,49.457 -17.07,57.89 -11.36,8.438 -37.3,12.7 -77.77,12.7 -54.22,0 -86.8,-6.602 -97.69,-19.922 -10.9,-13.282 -16.37,-52.661 -16.37,-118.129 0,-88.157 4.88,-140.481 14.72,-156.594 9.81,-16.211 41.57,-24.355 95.28,-24.355 43.51,0 71.76,4.472 84.72,13.398 12.97,8.965 19.5,28.613 19.5,58.965 l -1.25,20.664 0,0" /><path
         id="path28"
         style="fill:#538bd0;fill-opacity:1;fill-rule:nonzero;stroke:none"
         d="m 4873.32,811.957 0,-118.855 216.6,0 0,-64.762 -216.6,0 0,-130.625 230.7,0 0,-74.102 -317.81,0 0,462.457 315.43,0 0,-74.113 -228.32,0 0,0" /><path
         id="path30"
         style="fill:#9c9ea0;fill-opacity:1;fill-rule:nonzero;stroke:none"
         d="m 5685.74,886.07 0,-462.457 -87.07,0 0,251.828 c 0,20.082 0.59,42.852 1.68,68.403 l 1.72,34.609 1.68,34.336 -2.73,0 -10.51,-32.266 -10.16,-32.316 c -9.53,-28.855 -16.87,-50.184 -22.07,-63.977 l -101.87,-260.617 -80.12,0 -102.85,258.59 c -5.67,14.258 -13.17,35.547 -22.46,64.02 l -10.47,32.23 -10.55,31.871 -2.69,0 1.67,-33.551 1.69,-33.984 c 1.32,-26.137 2.03,-48.598 2.03,-67.348 l 0,-251.828 -87.11,0 0,462.457 142.46,0 82.85,-214.34 c 5.66,-14.835 13.12,-36.203 22.42,-63.976 l 10.16,-32.188 10.54,-31.757 3.05,0 9.85,31.757 10.15,31.817 c 8.4,26.894 15.63,48.105 21.76,63.648 l 81.48,215.039 145.47,0 0,0" /><path
         id="path32"
         style="fill:#9c9ea0;fill-opacity:1;fill-rule:nonzero;stroke:none"
         d="m 5844.22,811.957 0,-118.855 216.56,0 0,-64.762 -216.56,0 0,-130.625 230.66,0 0,-74.102 -317.77,0 0,462.457 315.43,0 0,-74.113 -228.32,0 0,0" /><path
         id="path34"
         style="fill:#9c9ea0;fill-opacity:1;fill-rule:nonzero;stroke:none"
         d="m 6140.63,423.613 0,462.457 226.56,0 c 64.72,0 110.04,-14.113 135.97,-42.347 25.86,-28.2 38.83,-77.692 38.83,-148.399 0,-115.461 -10.43,-189.621 -31.25,-222.472 -20.82,-32.832 -67.73,-49.239 -140.82,-49.239 l -229.29,0 0,0 z m 87.1,74.102 124.89,0 c 42.03,0 69.18,9.609 81.44,28.848 12.35,19.355 18.44,61.933 18.44,127.753 0,68.118 -5.47,111.391 -16.56,129.914 -11.1,18.481 -37.03,27.727 -77.89,27.727 l -130.32,0 0,-314.242" /><path
         id="path36"
         style="fill:#9c9ea0;fill-opacity:1;fill-rule:nonzero;stroke:none"
         d="m 6692.81,423.613 -87.11,0 0,462.457 87.11,0 0,-462.457" /><path
         id="path38"
         style="fill:#9c9ea0;fill-opacity:1;fill-rule:nonzero;stroke:none"
         d="m 7053.67,511.816 -199.37,0 -28.75,-88.203 -92.78,0 153.67,462.457 131.72,0 156.02,-462.457 -91.05,0 -29.46,88.203 0,0 z m -20.31,64.747 -79.92,241.261 -78.48,-241.261 158.4,0 0,0" /><path
         id="path40"
         style="fill:#305bb0;fill-opacity:1;fill-rule:nonzero;stroke:none"
         d="m 556.172,1130.87 c -22.934,-11.6 -55.004,-31.52 -97.934,-60.78 C 452.5,1066.26 346.449,995.91 237.621,903.922 81.5195,772.121 3.87109,668.145 0.160156,586.035 0.0390625,583.965 0,581.895 0,579.746 0,541.602 15.9805,508.613 46.4492,484.004 l -0.5078,0.488 C 62.5781,470.566 455.941,142.809 712.34,41.6406 757.578,23.8906 790.859,12.0898 814.102,5.73828 832.27,0.839844 874.961,-10.8984 891.879,25.7813 c 3.121,6.9375 4.57,13.5 4.57,19.75 0,30.5976 -33.988,54.3281 -64.648,75.6407 -30.391,21.187 -66.25,43.359 -84.961,54.668 -1.68,0.98 -140.36,83.199 -276.449,179.687 -253.442,179.61 -257.813,237.266 -257.813,240.821 0,0.078 0.391,8.359 0.781,16.367 13.911,27.168 75.942,117.457 350.27,363.508 l 1.141,0.937 0.968,1.047 c 0.864,0.832 20.821,21.535 39.961,44.223 17.391,20.75 41.41,49.34 41.41,77.07 0,9.65 -2.929,19.3 -10.039,28.36 -24.648,31.57 -65.511,10.82 -80.898,3.01" /><path
         id="path42"
         style="fill:#305bb0;fill-opacity:1;fill-rule:nonzero;stroke:none"
         d="m 988.828,215.059 c 22.932,11.582 54.962,31.5 97.972,60.781 5.74,3.832 111.75,74.258 220.58,166.113 156.06,131.856 233.71,235.797 237.46,317.867 0.12,2.137 0.16,4.219 0.16,6.325 0,38.128 -16.02,71.136 -46.52,95.746 l 0.58,-0.43 c -16.64,13.828 -410,341.559 -666.4,442.729 -45.281,17.81 -78.519,29.61 -101.762,35.98 -18.199,4.96 -60.898,16.6 -77.738,-20.08 -3.199,-6.91 -4.64,-13.52 -4.64,-19.73 0,-30.58 34.019,-54.29 64.679,-75.58 30.352,-21.21 66.25,-43.32 84.93,-54.69 1.711,-1.02 140.391,-83.2 276.481,-179.649 253.44,-179.648 257.77,-237.261 257.77,-240.937 0,0 -0.43,-8.32 -0.74,-16.25 -13.98,-27.262 -75.9,-117.512 -350.351,-363.547 l -1.059,-0.937 -0.968,-1.055 c -0.821,-0.86 -20.864,-21.586 -39.961,-44.293 -17.391,-20.672 -41.449,-49.363 -41.449,-77.031 0,-9.692 2.929,-19.262 10.039,-28.321 24.648,-31.57 65.55,-10.859 80.937,-3.011" /><path
         id="path44"
         style="fill:#305bb0;fill-opacity:1;fill-rule:nonzero;stroke:none"
         d="M 646.289,555.605 C 596.762,498.066 572.578,439.922 590.27,410.918 606.449,384.316 649.73,380.605 705.199,409.59 746.48,430.703 794.41,472.676 835.352,516.699 946.328,636.074 992.07,789 937.379,858.41 883.672,926.539 753.012,888.531 643.16,773.883 c -8.859,-5.981 -18.121,-10.903 -29.762,-12.309 -27.148,-3.082 -47.808,10.508 -46.207,30.43 0.661,8.359 5.387,14.105 12.379,20.937 140.469,180.43 333.75,256.409 429.81,162.032 97.26,-95.543 46.87,-263.864 -103.4,-439.27 C 840.551,459.316 764.531,401.211 695.469,373.926 628.129,346.559 577.93,354.238 542.73,402.207 c -53.55,73.106 -26.64,158.672 69.848,255.547 9.844,9.883 48.363,40.187 58.082,47.027 46.531,32.461 168.32,14.449 182.43,-24.218 14.101,-38.747 -6.449,-79.137 -57.43,-81.071 -112.34,-4.355 -132.961,-31.308 -149.371,-43.887" /></g></g></svg>