<?xml version="1.0" encoding="UTF-8" standalone="no"?>
<svg width="199px" height="23px" viewBox="0 0 199 23" version="1.1" xmlns="http://www.w3.org/2000/svg" xmlns:xlink="http://www.w3.org/1999/xlink">
    <!-- Generator: sketchtool 39.1 (31720) - http://www.bohemiancoding.com/sketch -->
    <title>3EBE452D-FD63-42B2-81CC-6788D204C179</title>
    <desc>Created with sketchtool.</desc>
    <defs>
        <polygon id="path-1" points="0 22.9657091 198.336203 22.9657091 198.336203 -0.000139393939 0 -0.000139393939"></polygon>
    </defs>
    <g id="Page-1" stroke="none" stroke-width="1" fill="none" fill-rule="evenodd">
        <g id="Desktop-HD" transform="translate(-621.000000, -3263.000000)">
            <g id="Group-5" transform="translate(484.000000, 3193.000000)">
                <g id="Page-1" transform="translate(137.000000, 70.000000)">
                    <path d="M6.5997028,13.4326273 C4.70224476,12.6910515 3.06293007,12.0498394 3.06293007,10.5715667 C3.06293007,8.86399091 4.61666084,8.25483939 6.0701958,8.25483939 C8.58552797,8.25483939 9.92147203,9.64668788 9.93469231,9.65923333 L10.0627203,9.7979303 L11.1885315,7.90635455 L11.118951,7.82899091 C11.0549371,7.75580909 9.49494406,6.04683939 6.13281818,6.04683939 C3.45675524,6.04683939 0.576125874,7.46308182 0.576125874,10.5715667 C0.576125874,13.5127788 3.22713986,14.5638091 5.56643357,15.4921727 C7.46667483,16.245597 9.10807692,16.8965667 9.10807692,18.3629909 C9.10807692,20.0071424 7.58148252,20.7445364 6.0701958,20.7445364 C3.21113636,20.7445364 1.46814685,18.8850212 1.45075175,18.8655061 L1.33594406,18.7407485 L0,20.5138394 L0.0758426573,20.6002636 C0.096020979,20.6246576 0.60534965,21.2003545 1.59756643,21.7802333 C2.51115734,22.3155061 4.02313986,22.9511424 6.03818881,22.9511424 C9.25906643,22.9511424 11.5962727,21.0212333 11.5962727,18.3629909 C11.5962727,15.3855364 8.94247552,14.3477485 6.5997028,13.4326273 L6.5997028,13.4326273 Z" id="Fill-1" fill="#FFFFFF"></path>
                    <path d="M22.6798073,6.04656061 C17.9045031,6.04656061 14.1624682,9.72516667 14.1624682,14.4206515 C14.1624682,19.2039545 17.9045031,22.9522576 22.6798073,22.9522576 C27.4565031,22.9522576 31.1971465,19.2039545 31.1971465,14.4206515 C31.1971465,9.72516667 27.4565031,6.04656061 22.6798073,6.04656061 M28.7089507,14.4206515 C28.7089507,17.9668333 26.0607199,20.7442576 22.6798073,20.7442576 C19.298199,20.7442576 16.650664,17.9668333 16.650664,14.4206515 C16.650664,10.9797121 19.298199,8.28522727 22.6798073,8.28522727 C26.0607199,8.28522727 28.7089507,10.9797121 28.7089507,14.4206515" id="Fill-3" fill="#FFFFFF"></path>
                    <path d="M41.7317612,0.0655151515 C41.7157577,0.0627272727 41.3358486,0 40.733978,0 C39.045957,0 35.1202297,0.588939394 35.1202297,6.03227273 L35.1202297,6.647 L32.9625409,6.647 L32.9625409,8.72536364 L35.1202297,8.72536364 L35.1202297,22.585303 L37.5416283,22.585303 L37.5416283,8.72536364 L41.5981668,8.72536364 L41.5981668,6.647 L37.5416283,6.647 L37.5416283,6.03227273 C37.5416283,4.60348485 37.9855514,2.20521212 40.9531563,2.20521212 C41.3727262,2.20521212 41.6781843,2.26445455 41.6809675,2.26584848 L41.8493521,2.3 L41.8493521,0.0857272727 L41.7317612,0.0655151515 Z" id="Fill-5" fill="#FFFFFF"></path>
                    <path d="M53.1632675,20.6174788 L52.9886206,20.6551152 C52.9858374,20.6565091 52.7061241,20.7164485 52.2816836,20.7164485 C50.9826171,20.7164485 48.801271,20.1804788 48.801271,16.5876 L48.801271,8.77038788 L52.8418059,8.77038788 L52.8418059,6.65020606 L48.801271,6.65020606 L48.801271,1.99235758 L46.3645647,1.99235758 L46.3645647,6.65020606 L44.2138339,6.65020606 L44.2138339,8.77038788 L46.3311661,8.77038788 L46.3311661,16.8134182 C46.3311661,22.1668424 49.9389108,22.9655697 52.0896416,22.9655697 C52.6727255,22.9655697 53.0296731,22.9028424 53.0456766,22.9000545 L53.1632675,22.8777515 L53.1632675,20.6174788 Z" id="Fill-7" fill="#FFFFFF"></path>
                    <path d="M58.088935,17.7731455 C58.088935,17.7731455 59.858365,19.5455394 62.4815469,19.5455394 C63.6191867,19.5455394 64.5995748,19.0395394 64.5995748,18.0895697 C64.5995748,15.6829333 56.7620364,16.0007515 56.7620364,10.8083273 C56.7620364,7.8016 59.4478406,6.05987273 62.9233825,6.05987273 C66.5596552,6.05987273 68.3290853,7.89638788 68.3290853,7.89638788 L66.8435434,10.8724485 C66.8435434,10.8724485 65.3580014,9.47920606 62.8934629,9.47920606 C61.8497566,9.47920606 60.8387531,9.92247879 60.8387531,10.9351758 C60.8387531,13.2142667 68.6762916,12.9306 68.6762916,18.1216303 C68.6762916,20.8119333 66.3369979,22.9641758 62.5135538,22.9641758 C58.4994594,22.9641758 56.2554909,20.590297 56.2554909,20.590297 L58.088935,17.7731455 Z" id="Fill-9" fill="#FEFEFE"></path>
                    <path d="M79.4927766,6.06001212 C84.1386612,6.06001212 86.6352066,9.44728485 86.6352066,13.7218 C86.6352066,14.1964364 86.5405773,15.2718606 86.5405773,15.2718606 L75.4160598,15.2718606 C75.6693325,18.0890121 77.8499829,19.5463758 80.2505073,19.5463758 C82.8437696,19.5463758 84.896392,17.7732848 84.896392,17.7732848 L86.4459479,20.6545576 C86.4459479,20.6545576 83.9800178,22.9657091 79.967315,22.9657091 C74.626322,22.9657091 71.307336,19.1024061 71.307336,14.5128606 C71.307336,9.54137576 74.6882486,6.06001212 79.4927766,6.06001212 L79.4927766,6.06001212 Z M82.5904969,12.5174364 C82.5264829,10.3345273 81.1675773,9.16292121 79.3981472,9.16292121 C77.3441332,9.16292121 75.9212136,10.4293152 75.5426962,12.5174364 L82.5904969,12.5174364 Z" id="Fill-11" fill="#FEFEFE"></path>
                    <path d="M90.6755329,6.4399303 L94.5309839,6.4399303 L94.5309839,9.22641515 C94.5309839,9.82720303 94.4683615,10.3645667 94.4683615,10.3645667 L94.5309839,10.3645667 C95.2587951,8.05480909 97.1861727,6.21829394 99.651407,6.21829394 C100.03062,6.21829394 100.378522,6.28102121 100.378522,6.28102121 L100.378522,10.2391121 C100.378522,10.2391121 99.9666063,10.1749909 99.4301413,10.1749909 C97.7233336,10.1749909 95.7952601,11.1563242 95.0375294,13.5622636 C94.7842566,14.3533242 94.6896273,15.2412636 94.6896273,16.1898394 L94.6896273,22.5845364 L90.6755329,22.5845364 L90.6755329,6.4399303 Z" id="Fill-13" fill="#FEFEFE"></path>
                    <path d="M102.125965,6.4399303 L106.361325,6.4399303 L109.710231,16.4435364 C110.026126,17.3935061 110.247392,18.4661424 110.279399,18.4661424 L110.343413,18.4661424 C110.374028,18.4661424 110.596685,17.3935061 110.91258,16.4435364 L114.261486,6.4399303 L118.496846,6.4399303 L112.713322,22.5845364 L107.973503,22.5845364 L102.125965,6.4399303 Z" id="Fill-15" fill="#FEFEFE"></path>
                    <path d="M127.672068,6.06001212 C132.317953,6.06001212 134.814498,9.44728485 134.814498,13.7218 C134.814498,14.1964364 134.719869,15.2718606 134.719869,15.2718606 L123.595351,15.2718606 C123.848624,18.0890121 126.029274,19.5463758 128.429799,19.5463758 C131.023061,19.5463758 133.077075,17.7732848 133.077075,17.7732848 L134.62524,20.6545576 C134.62524,20.6545576 132.159309,22.9657091 128.146607,22.9657091 C122.805614,22.9657091 119.486628,19.1024061 119.486628,14.5128606 C119.486628,9.54137576 122.86754,6.06001212 127.672068,6.06001212 L127.672068,6.06001212 Z M130.769788,12.5174364 C130.705774,10.3345273 129.346869,9.16292121 127.577439,9.16292121 C125.523425,9.16292121 124.099809,10.4293152 123.721988,12.5174364 L130.769788,12.5174364 Z" id="Fill-17" fill="#FEFEFE"></path>
                    <path d="M143.829964,6.30116364 C142.247009,6.30116364 141.141376,7.45952727 141.141376,9.11970909 C141.141376,10.7534061 142.338855,11.9396485 143.987215,11.9396485 C145.255666,11.9396485 146.060712,11.1806485 146.06767,11.1729818 L146.085065,11.1569515 L145.634184,10.3554364 L145.60496,10.3819212 C145.599394,10.387497 144.941859,10.9938606 144.051229,10.9938606 C143.264275,10.9938606 142.327027,10.5491939 142.253967,9.29743636 L146.127509,9.29743636 L146.130292,9.27164848 C146.130292,9.25840606 146.160908,8.96219394 146.160908,8.82558788 C146.160908,7.29225455 145.245925,6.30116364 143.829964,6.30116364 M143.809785,7.17237576 C144.385911,7.17237576 145.012831,7.51389091 145.05945,8.46804242 L142.290845,8.46804242 C142.440443,7.66792121 143.01796,7.17237576 143.809785,7.17237576" id="Fill-19" fill="#FEFEFE"></path>
                    <path d="M150.336637,9.04659697 L152.06919,6.42738485 L150.828571,6.42738485 L149.832875,8.06317273 C149.770949,8.1649303 149.700672,8.29177879 149.670057,8.34823333 C149.63805,8.29177879 149.569861,8.1649303 149.507239,8.06317273 L148.510847,6.42738485 L147.269533,6.42738485 L149.002085,9.04659697 L147.20691,11.7661727 L147.174903,11.8128697 L148.404389,11.8128697 L149.527417,10.0202636 C149.58169,9.9268697 149.640833,9.8118697 149.670057,9.75611212 C149.697889,9.8118697 149.757728,9.92826364 149.811305,10.0202636 L150.934333,11.8128697 L152.163819,11.8128697 L150.336637,9.04659697 Z" id="Fill-21" fill="#FEFEFE"></path>
                    <path d="M156.286807,6.30116364 C155.179783,6.30116364 154.666279,6.96886061 154.518769,7.20443636 C154.525031,7.13195152 154.531989,7.02531515 154.531989,6.91031515 L154.531989,6.42801212 L153.535597,6.42801212 L153.535597,13.9176485 L154.61479,13.9176485 L154.61479,11.4984667 C154.61479,11.3367697 154.607831,11.2036485 154.602265,11.122103 C154.657234,11.2050424 154.767866,11.3493152 154.942513,11.4949818 C155.183957,11.6978 155.60144,11.9396485 156.212356,11.9396485 C157.647104,11.9396485 158.649758,10.7798909 158.649758,9.11970909 C158.649758,7.43373939 157.69929,6.30116364 156.286807,6.30116364 M157.558737,9.13155758 C157.558737,10.2348606 156.940167,11.0043152 156.055104,11.0043152 C155.089328,11.0043152 154.584174,10.0668909 154.584174,9.14131515 C154.584174,8.23107273 154.978695,7.25740606 156.087111,7.25740606 C156.967999,7.25740606 157.558737,8.00943636 157.558737,9.13155758" id="Fill-23" fill="#FEFEFE"></path>
                    <path d="M162.751385,6.30116364 C161.16843,6.30116364 160.062797,7.45952727 160.062797,9.11970909 C160.062797,10.7534061 161.260276,11.9396485 162.908636,11.9396485 C164.177087,11.9396485 164.982133,11.1806485 164.989091,11.1729818 L165.006486,11.1569515 L164.555605,10.3554364 L164.526381,10.3819212 C164.520815,10.387497 163.86328,10.9938606 162.97265,10.9938606 C162.185696,10.9938606 161.248448,10.5491939 161.175388,9.29743636 L165.047538,9.29743636 L165.050322,9.27164848 C165.051713,9.25840606 165.082329,8.96219394 165.082329,8.82558788 C165.082329,7.29225455 164.167346,6.30116364 162.751385,6.30116364 M162.731206,7.17237576 C163.307332,7.17237576 163.934252,7.51389091 163.980871,8.46804242 L161.212266,8.46804242 C161.360472,7.66792121 161.939381,7.17237576 162.731206,7.17237576" id="Fill-25" fill="#FEFEFE"></path>
                    <path d="M169.772397,6.38570606 C169.76683,6.38431212 169.642977,6.3641 169.504512,6.3641 C168.778788,6.3641 168.141432,6.85337273 167.847107,7.62422121 C167.851977,7.55731212 167.85476,7.47297879 167.85476,7.38376667 L167.85476,6.42822121 L166.805488,6.42822121 L166.805488,11.8130091 L167.886767,11.8130091 L167.886767,9.60361515 C167.886767,9.23631212 167.92782,8.92616061 168.010621,8.65643333 C168.240236,7.90858485 168.813579,7.42488788 169.472505,7.42488788 C169.625582,7.42488788 169.759177,7.45555455 169.760568,7.45555455 L169.798837,7.46391818 L169.798837,6.38988788 L169.772397,6.38570606 Z" id="Fill-27" fill="#FEFEFE"></path>
                    <mask id="mask-2" fill="white">
                        <use xlink:href="#path-1"></use>
                    </mask>
                    <g id="Clip-30"></g>
                    <polygon id="Fill-29" fill="#FEFEFE" mask="url(#mask-2)" points="171.181748 11.8128 172.261636 11.8128 172.261636 6.42801212 171.181748 6.42801212"></polygon>
                    <polygon id="Fill-31" fill="#FEFEFE" mask="url(#mask-2)" points="171.171311 5.42507273 172.262332 5.42507273 172.262332 4.3217697 171.171311 4.3217697"></polygon>
                    <path d="M176.639706,6.30116364 C175.056751,6.30116364 173.951119,7.45952727 173.951119,9.11970909 C173.951119,10.7534061 175.148598,11.9396485 176.796958,11.9396485 C178.065409,11.9396485 178.870454,11.1806485 178.877412,11.1729818 L178.894807,11.1569515 L178.443926,10.3554364 L178.414702,10.3819212 C178.409136,10.387497 177.750905,10.9938606 176.860972,10.9938606 C176.074017,10.9938606 175.136769,10.5491939 175.063709,9.29743636 L178.93586,9.29743636 L178.940035,9.27164848 C178.940035,9.25840606 178.97065,8.96219394 178.97065,8.82558788 C178.97065,7.29225455 178.055667,6.30116364 176.639706,6.30116364 M176.619528,7.17237576 C177.195653,7.17237576 177.822573,7.51389091 177.869192,8.46804242 L175.100587,8.46804242 C175.248793,7.66792121 175.827702,7.17237576 176.619528,7.17237576" id="Fill-32" fill="#FEFEFE" mask="url(#mask-2)"></path>
                    <path d="M183.70859,6.30116364 C182.689932,6.30116364 182.02196,6.89567879 181.732506,7.44349697 C181.737376,7.37101212 181.742943,7.27064848 181.742943,7.16261818 L181.742943,6.42801212 L180.695062,6.42801212 L180.695062,11.8128 L181.77495,11.8128 L181.77495,9.28907273 C181.77495,8.99425455 181.80139,8.7698303 181.85775,8.58164848 C182.081799,7.80243636 182.729593,7.29922424 183.508894,7.29922424 C184.367516,7.29922424 184.487194,7.92649697 184.487194,8.60534545 L184.487194,11.8128 L185.566387,11.8128 L185.566387,8.37325455 C185.566387,6.97861818 184.958254,6.30116364 183.70859,6.30116364" id="Fill-33" fill="#FEFEFE" mask="url(#mask-2)"></path>
                    <path d="M191.787711,10.2569545 L191.758487,10.2890152 C191.752921,10.2959848 191.105127,10.9943485 190.142134,10.9943485 C189.071292,10.9943485 188.292687,10.2018939 188.292687,9.10974242 C188.292687,8.03013636 189.058071,7.24604545 190.111519,7.24604545 C190.99032,7.24604545 191.553225,7.84056061 191.559487,7.84613636 L191.585232,7.87401515 L192.103606,7.10734848 L192.088994,7.08992424 C192.081341,7.08295455 191.402236,6.30165152 190.069075,6.30165152 C188.401928,6.30165152 187.191229,7.4865 187.191229,9.12019697 C187.191229,10.7538939 188.401928,11.9387424 190.069075,11.9387424 C191.454421,11.9387424 192.206585,11.0849545 192.214239,11.0758939 L192.228851,11.0598636 L191.787711,10.2569545 Z" id="Fill-34" fill="#FEFEFE" mask="url(#mask-2)"></path>
                    <path d="M196.005537,6.30116364 C194.422583,6.30116364 193.31695,7.45952727 193.31695,9.11970909 C193.31695,10.7534061 194.514429,11.9396485 196.162789,11.9396485 C197.43124,11.9396485 198.236285,11.1806485 198.243243,11.1729818 L198.260638,11.1569515 L197.809757,10.3554364 L197.780534,10.3819212 C197.774967,10.387497 197.117432,10.9938606 196.226803,10.9938606 C195.439848,10.9938606 194.5026,10.5491939 194.429541,9.29743636 L198.303083,9.29743636 L198.304474,9.27164848 C198.305866,9.25840606 198.336481,8.96219394 198.336481,8.82558788 C198.336481,7.29225455 197.421499,6.30116364 196.005537,6.30116364 M195.985359,7.17237576 C196.561485,7.17237576 197.188404,7.51389091 197.235023,8.46804242 L194.466418,8.46804242 C194.616016,7.66792121 195.193534,7.17237576 195.985359,7.17237576" id="Fill-35" fill="#FEFEFE" mask="url(#mask-2)"></path>
                    <path d="M147.863193,17.0754788 C146.95656,17.0754788 146.255189,17.6776606 145.967126,18.2547515 C145.773693,17.4720545 145.230965,17.0754788 144.353556,17.0754788 C143.527637,17.0754788 142.830441,17.6407212 142.546553,18.2080545 C142.552815,18.1362667 142.55699,18.0400848 142.55699,17.9369333 L142.55699,17.2023273 L141.509109,17.2023273 L141.509109,22.5871152 L142.588997,22.5871152 L142.588997,20.1261152 C142.588997,19.9086606 142.595955,19.6577515 142.650228,19.4396 C142.871493,18.6025394 143.45736,18.0623879 144.144119,18.0623879 C144.886542,18.0623879 145.038923,18.5851152 145.038923,19.3678121 L145.038923,22.5871152 L146.118812,22.5871152 L146.118812,20.1261152 C146.118812,19.8375697 146.141773,19.6054788 146.191175,19.3970848 C146.36443,18.7328727 146.882805,18.0623879 147.653756,18.0623879 C148.456714,18.0623879 148.567347,18.6903576 148.567347,19.3678121 L148.567347,22.5871152 L149.648626,22.5871152 L149.648626,19.1475697 C149.648626,17.7529333 149.064847,17.0754788 147.863193,17.0754788" id="Fill-36" fill="#FEFEFE" mask="url(#mask-2)"></path>
                    <path d="M153.622016,17.0754788 C152.407142,17.0754788 151.624362,17.7083273 151.616708,17.713903 L151.59653,17.7299333 L152.047411,18.5300545 L152.075243,18.5077515 C152.082897,18.5035697 152.739041,17.9996606 153.537824,17.9996606 C154.29138,17.9996606 154.674072,18.3829939 154.674072,19.1364182 L154.674072,19.2005394 L154.472985,19.2005394 C152.327124,19.2005394 151.238887,19.8271152 151.238887,21.0628424 C151.238887,22.1459333 152.162915,22.7139636 153.076506,22.7139636 C154.123691,22.7139636 154.614233,21.9988727 154.758264,21.7375091 C154.752698,21.8134788 154.746436,21.924297 154.746436,22.0511455 L154.746436,22.5871152 L155.753264,22.5871152 L155.753264,19.1900848 C155.753264,17.8261152 154.996925,17.0754788 153.622016,17.0754788 M153.29638,21.830903 C152.631191,21.830903 152.328516,21.4050545 152.328516,21.0105697 C152.328516,20.1316909 153.540607,20.0313273 154.451415,20.0313273 L154.683813,20.0313273 L154.683813,20.1679333 C154.683813,21.1632061 153.967135,21.830903 153.29638,21.830903" id="Fill-37" fill="#FEFEFE" mask="url(#mask-2)"></path>
                    <path d="M160.24301,21.6429303 C160.241619,21.6429303 160.149773,21.6631424 160.008524,21.6631424 C159.595217,21.6631424 158.904283,21.5119 158.904283,20.4943242 L158.904283,18.1566879 L160.185955,18.1566879 L160.185955,17.2750212 L158.904283,17.2750212 L158.904283,15.7389 L157.855706,15.7389 L157.855706,17.2750212 L157.130678,17.2750212 L157.130678,18.1566879 L157.823699,18.1566879 L157.823699,20.6093242 C157.823699,21.3648394 158.09228,22.6298394 159.892325,22.6298394 C160.101762,22.6298394 160.247185,22.6089303 160.253448,22.6075364 L160.279192,22.6047485 L160.279192,21.6338697 L160.24301,21.6429303 Z" id="Fill-38" fill="#FEFEFE" mask="url(#mask-2)"></path>
                    <path d="M164.57293,21.6429303 C164.571539,21.6429303 164.479693,21.6631424 164.338444,21.6631424 C163.925137,21.6631424 163.234203,21.5119 163.234203,20.4943242 L163.234203,18.1566879 L164.515874,18.1566879 L164.515874,17.2750212 L163.234203,17.2750212 L163.234203,15.7389 L162.185626,15.7389 L162.185626,17.2750212 L161.460598,17.2750212 L161.460598,18.1566879 L162.153619,18.1566879 L162.153619,20.6093242 C162.153619,21.3648394 162.4222,22.6298394 164.222245,22.6298394 C164.431682,22.6298394 164.577105,22.6089303 164.583367,22.6075364 L164.610504,22.6047485 L164.610504,21.6338697 L164.57293,21.6429303 Z" id="Fill-39" fill="#FEFEFE" mask="url(#mask-2)"></path>
                    <path d="M168.311904,17.0754788 C166.728949,17.0754788 165.623316,18.2338424 165.623316,19.8940242 C165.623316,21.5277212 166.820795,22.7139636 168.469156,22.7139636 C169.737607,22.7139636 170.540565,21.9549636 170.54961,21.947297 L170.567005,21.9312667 L170.116124,21.1297515 L170.0869,21.1562364 C170.081334,21.1618121 169.423103,21.7681758 168.53317,21.7681758 C167.746215,21.7681758 166.808967,21.3235091 166.735907,20.0717515 L170.608058,20.0717515 L170.610841,20.0459636 C170.612233,20.0327212 170.642848,19.7365091 170.642848,19.599903 C170.642848,18.0665697 169.727865,17.0754788 168.311904,17.0754788 M168.291726,17.9466909 C168.867851,17.9466909 169.494771,18.2882061 169.54139,19.2423576 L166.772785,19.2423576 C166.920991,18.4422364 167.4999,17.9466909 168.291726,17.9466909" id="Fill-40" fill="#FEFEFE" mask="url(#mask-2)"></path>
                    <path d="M175.333055,17.1600212 C175.327489,17.1586273 175.203636,17.1384152 175.065171,17.1384152 C174.339447,17.1384152 173.70209,17.6276879 173.407765,18.3985364 C173.412636,18.3316273 173.415419,18.2472939 173.415419,18.1580818 L173.415419,17.2025364 L172.366146,17.2025364 L172.366146,22.5873242 L173.446034,22.5873242 L173.446034,20.3779303 C173.446034,20.0106273 173.488478,19.7004758 173.571279,19.4307485 C173.800894,18.6829 174.374237,18.199203 175.033164,18.199203 C175.186241,18.199203 175.319835,18.2298697 175.321227,18.2298697 L175.359496,18.2382333 L175.359496,17.164203 L175.333055,17.1600212 Z" id="Fill-41" fill="#FEFEFE" mask="url(#mask-2)"></path>
                    <path d="M178.755786,19.4423182 C178.195663,19.2206818 177.712775,19.0283182 177.712775,18.642197 C177.712775,18.1842879 178.147653,18.019803 178.553307,18.019803 C179.370877,18.019803 179.84124,18.4805 179.845415,18.4846818 L179.874639,18.5139545 L180.313691,17.6908333 L180.299775,17.674803 C180.293513,17.6685303 179.730607,17.0754091 178.565135,17.0754091 C177.39688,17.0754091 176.611317,17.6964091 176.611317,18.6219848 C176.611317,19.6332879 177.501251,19.9929242 178.286118,20.3093485 C178.853198,20.5400455 179.34374,20.7365909 179.34374,21.1359545 C179.34374,21.5513485 178.914429,21.7681061 178.490684,21.7681061 C177.591705,21.7681061 176.995401,21.1638333 176.989139,21.1575606 L176.963394,21.1296818 L176.435279,21.906803 L176.451282,21.9242273 C176.45824,21.9332879 177.190226,22.7138939 178.490684,22.7138939 C179.640153,22.7138939 180.443807,22.0657121 180.443807,21.1359545 C180.443807,20.1114091 179.50795,19.7413182 178.755786,19.4423182" id="Fill-42" fill="#FEFEFE" mask="url(#mask-2)"></path>
                </g>
            </g>
        </g>
    </g>
</svg>