<?xml version="1.0" encoding="UTF-8"?>
<svg width="179px" height="31px" viewBox="0 0 179 31" version="1.1" xmlns="http://www.w3.org/2000/svg" xmlns:xlink="http://www.w3.org/1999/xlink">
    <!-- Generator: sketchtool 40.3 (33839) - http://www.bohemiancoding.com/sketch -->
    <title>F6DB031D-7C3F-430C-9CF2-393B8D2C0F17</title>
    <desc>Created with sketchtool.</desc>
    <defs></defs>
    <g id="SoftServe---Phase-2" stroke="none" stroke-width="1" fill="none" fill-rule="evenodd">
        <g id="Home" transform="translate(-30.000000, -29.000000)" fill="#FFFFFF">
            <g id="header" transform="translate(0.000000, -1.000000)">
                <g id="Softserve-logo+tagline-CMYK" transform="translate(30.000000, 30.000000)">
                    <path d="M8.74578272,18.383 C6.23075916,17.4006444 4.05928796,16.5526222 4.05928796,14.5961778 C4.05928796,12.3352444 6.11715969,11.5285556 8.0442199,11.5285556 C11.3764712,11.5285556 13.1458691,13.3706444 13.1630812,13.3899333 L13.3338246,13.5711111 L14.8250759,11.0676889 L14.7335079,10.9650444 C14.6481361,10.8692889 12.5820026,8.60697778 8.12752618,8.60697778 C4.58115707,8.60697778 0.76421466,10.4807556 0.76421466,14.5961778 C0.76421466,18.4884 4.27753665,19.8799556 7.37639267,21.1082444 C9.89485864,22.1057556 12.0690838,22.9675556 12.0690838,24.9067778 C12.0690838,27.0843556 10.0477016,28.0584444 8.0442199,28.0584444 C4.25619372,28.0584444 1.94702618,25.5984222 1.9236178,25.5729333 L1.77146335,25.4082889 L0,27.7553333 L0.100518325,27.8696889 C0.129434555,27.9013778 0.803458115,28.6626 2.1191466,29.4314 C3.32812042,30.1382 5.33091361,30.9814 8.00222251,30.9814 C12.2687435,30.9814 15.365534,28.4263111 15.365534,24.9067778 C15.365534,20.9670222 11.8480812,19.5933778 8.74578272,18.383" id="Fill-1"></path>
                    <path d="M38.040678,19.6905111 C38.040678,24.3825333 34.5307984,28.0584444 30.0508482,28.0584444 C25.5715864,28.0584444 22.0617068,24.3825333 22.0617068,19.6905111 C22.0617068,15.1362667 25.5715864,11.5705778 30.0508482,11.5705778 C34.5307984,11.5705778 38.040678,15.1362667 38.040678,19.6905111 L38.040678,19.6905111 Z M30.0508482,8.60697778 C23.7243901,8.60697778 18.7666335,13.4746667 18.7666335,19.6905111 C18.7666335,26.0207111 23.7243901,30.9814 30.0508482,30.9814 C36.3786832,30.9814 41.3357513,26.0207111 41.3357513,19.6905111 C41.3357513,13.4746667 36.3786832,8.60697778 30.0508482,8.60697778 L30.0508482,8.60697778 Z" id="Fill-4"></path>
                    <path d="M55.2940288,0.690955556 C55.2733743,0.686822222 54.7687173,0.605533333 53.970767,0.605533333 C51.735267,0.605533333 46.5344764,1.38328889 46.5344764,8.58837778 L46.5344764,9.40126667 L43.6772775,9.40126667 L43.6772775,12.1526889 L46.5344764,12.1526889 L46.5344764,30.4957333 L49.7421126,30.4957333 L49.7421126,12.1526889 L55.117089,12.1526889 L55.117089,9.40126667 L49.7421126,9.40126667 L49.7421126,8.58837778 C49.7421126,6.69668889 50.3307644,3.52297778 54.2626832,3.52297778 C54.818288,3.52297778 55.2231152,3.6022 55.2272461,3.60288889 L55.4503141,3.64766667 L55.4503141,0.717133333 L55.2940288,0.690955556" id="Fill-5"></path>
                    <path d="M70.4406257,27.8917333 L70.2079188,27.9420222 C70.2051649,27.9434 69.8361387,28.0233111 69.2715838,28.0233111 C67.5496911,28.0233111 64.660822,27.3130667 64.660822,22.5597333 L64.660822,12.2119333 L70.0158325,12.2119333 L70.0158325,9.40677778 L64.660822,9.40677778 L64.660822,3.24053333 L61.4311545,3.24053333 L61.4311545,9.40677778 L58.5835942,9.40677778 L58.5835942,12.2119333 L61.3884686,12.2119333 L61.3884686,22.8566444 C61.3884686,29.9418667 66.1672199,31 69.017534,31 C69.790699,31 70.2643743,30.9159556 70.2829634,30.9118222 L70.4406257,30.8835778 L70.4406257,27.8917333" id="Fill-6"></path>
                    <path d="M76.9667435,24.1269556 C76.9667435,24.1269556 79.311712,26.474 82.7871675,26.474 C84.2956309,26.474 85.5920419,25.8037111 85.5920419,24.5471778 C85.5920419,21.3617556 75.2083613,21.7812889 75.2083613,14.9096222 C75.2083613,10.9292222 78.7678115,8.6242 83.3730654,8.6242 C88.1889948,8.6242 90.5332749,11.0546 90.5332749,11.0546 L88.5655942,14.9936667 C88.5655942,14.9936667 86.5979136,13.1502 83.3317565,13.1502 C81.9499738,13.1502 80.6101885,13.7364444 80.6101885,15.0770222 C80.6101885,18.0943556 90.9945576,17.7161556 90.9945576,24.5878222 C90.9945576,28.1486889 87.8963901,30.9979333 82.8298534,30.9979333 C77.5113325,30.9979333 74.5370916,27.8552222 74.5370916,27.8552222 L76.9667435,24.1269556" id="Fill-7"></path>
                    <path d="M109.430031,17.1726222 C109.346037,14.2813556 107.544969,12.7299778 105.2,12.7299778 C102.47912,12.7299778 100.594058,14.4067333 100.091466,17.1726222 L109.430031,17.1726222 L109.430031,17.1726222 Z M105.325992,8.6242 C111.481707,8.6242 114.789861,13.1074889 114.789861,18.7646444 C114.789861,19.3922222 114.664558,20.8182222 114.664558,20.8182222 L99.9248534,20.8182222 C100.258767,24.5471778 103.149702,26.474 106.331175,26.474 C109.764634,26.474 112.486202,24.1269556 112.486202,24.1269556 L114.538565,27.9406444 C114.538565,27.9406444 111.272408,30.9979333 105.953887,30.9979333 C98.8769843,30.9979333 94.4803403,25.8870667 94.4803403,19.8117556 C94.4803403,13.2335556 98.9616675,8.6242 105.325992,8.6242 L105.325992,8.6242 Z" id="Fill-8"></path>
                    <path d="M120.142118,9.12777778 L125.25134,9.12777778 L125.25134,12.8147111 C125.25134,13.6103778 125.168034,14.3226889 125.168034,14.3226889 L125.25134,14.3226889 C126.215215,11.2647111 128.769482,8.83431111 132.03495,8.83431111 C132.537542,8.83431111 132.998136,8.91766667 132.998136,8.91766667 L132.998136,14.1559778 C132.998136,14.1559778 132.454236,14.0719333 131.742346,14.0719333 C129.479995,14.0719333 126.925728,15.3698 125.921233,18.5552222 C125.586631,19.6023333 125.461327,20.7748222 125.461327,22.0320444 L125.461327,30.4957333 L120.142118,30.4957333 L120.142118,9.12777778" id="Fill-9"></path>
                    <path d="M135.314188,9.12777778 L140.925314,9.12777778 L145.363955,22.3668444 C145.783241,23.6247556 146.076534,25.0445556 146.116466,25.0445556 L146.201838,25.0445556 C146.243147,25.0445556 146.53644,23.6247556 146.955037,22.3668444 L151.394366,9.12777778 L157.004804,9.12777778 L149.342003,30.4957333 L143.060984,30.4957333 L135.314188,9.12777778" id="Fill-10"></path>
                    <path d="M173.265364,17.1726222 C173.182058,14.2813556 171.38099,12.7299778 169.036021,12.7299778 C166.314453,12.7299778 164.42939,14.4067333 163.927487,17.1726222 L173.265364,17.1726222 L173.265364,17.1726222 Z M169.162013,8.6242 C175.317728,8.6242 178.625882,13.1074889 178.625882,18.7646444 C178.625882,19.3922222 178.49989,20.8182222 178.49989,20.8182222 L163.759497,20.8182222 C164.095476,24.5471778 166.984346,26.474 170.166508,26.474 C173.599966,26.474 176.322223,24.1269556 176.322223,24.1269556 L178.374586,27.9406444 C178.374586,27.9406444 175.107741,30.9979333 169.789908,30.9979333 C162.713694,30.9979333 158.315673,25.8870667 158.315673,19.8117556 C158.315673,13.2335556 162.797,8.6242 169.162013,8.6242 L169.162013,8.6242 Z" id="Fill-11"></path>
                </g>
            </g>
        </g>
    </g>
</svg>